<svg xmlns="http://www.w3.org/2000/svg"> 
<symbol viewBox="0 0 24 24" id="trust"><path stroke="#000" stroke-linecap="round" stroke-linejoin="round" stroke-width="2" d="M10.5 21H5.6c-.56 0-.84 0-1.054-.109a1 1 0 0 1-.437-.437C4 20.24 4 19.96 4 19.4v-1.716c0-.636 0-.953.048-1.218a3 3 0 0 1 2.418-2.418c.077-.014.158-.024.25-.03a3 3 0 0 1 .488-.015c.156.011.243.027.394.07.145.04.406.159.929.395.311.141.636.256.973.343M15 7a4 4 0 1 1-8 0 4 4 0 0 1 8 0Zm1.498 9.212c-.7-.78-1.867-.989-2.744-.275-.877.713-1 1.906-.311 2.75.388.476 1.312 1.311 2.042 1.948.347.302.52.453.73.515.178.053.387.053.566 0 .21-.061.382-.213.729-.515.73-.637 1.654-1.472 2.043-1.948.688-.844.58-2.044-.312-2.75-.892-.706-2.044-.504-2.743.275Z"/></symbol> 

<symbol  viewBox="0 0 24 24" id="feedback"><path stroke="#000" stroke-linecap="round" stroke-linejoin="round" stroke-width="2" d="M11 15c-.882 0-1.72-.19-2.473-.532-.523-.236-.784-.355-.929-.396a1.715 1.715 0 0 0-.394-.07 3 3 0 0 0-.488.015 2.432 2.432 0 0 0-.25.031 3 3 0 0 0-2.418 2.418C4 16.73 4 17.048 4 17.684V19.4c0 .56 0 .84.109 1.054a1 1 0 0 0 .437.437C4.76 21 5.04 21 5.6 21h2.8M15 7a4 4 0 1 1-8 0 4 4 0 0 1 8 0Zm-2.41 14 2.025-.405c.176-.035.265-.053.347-.085a.997.997 0 0 0 .207-.111c.072-.05.136-.114.263-.242L19.59 16a1.414 1.414 0 1 0-2-2l-4.158 4.157c-.127.128-.19.191-.241.264a.999.999 0 0 0-.11.207c-.033.082-.05.17-.086.347L12.59 21Z"/>
</symbol>
<symbol viewBox="0 0 24 24" id="miracle"><path stroke="#000" stroke-linecap="round" stroke-linejoin="round" stroke-width="2" d="m9 12 2 2 4-4m-3-7 1.91 1.871 2.59-.665.718 2.576 2.576.718-.666 2.59L21 12l-1.872 1.91.666 2.59-2.576.718-.718 2.576-2.59-.666L12 21l-1.91-1.872-2.59.666-.718-2.576-2.576-.718.665-2.59L3 12l1.871-1.91-.665-2.59 2.576-.718.718-2.576 2.59.665L12 3Z"/></symbol>

<symbol viewBox="0 0 24 24" id="unstoppable"><path stroke="#000" stroke-linecap="round" stroke-linejoin="round" stroke-width="2" d="m4 8 2 12h12l2-12M4 8l1.716 1.373c1.116.893 1.674 1.34 2.237 1.408a2 2 0 0 0 1.396-.35c.463-.326.745-.983 1.307-2.296L12 5M4 8a1 1 0 1 0 0-2 1 1 0 0 0 0 2Zm16 0-1.716 1.373c-1.116.893-1.674 1.34-2.237 1.408a2 2 0 0 1-1.396-.35c-.463-.326-.745-.983-1.307-2.296L12 5m8 3a1 1 0 1 0 0-2 1 1 0 0 0 0 2Zm-8-3a1 1 0 1 0 0-2 1 1 0 0 0 0 2Zm0-1h.01M20 7h.01M4 7h.01"/></symbol>
<symbol viewBox="0 0 24 24" id="commenced"><path stroke="#000" stroke-linecap="round" stroke-linejoin="round" stroke-width="2" d="M12 3v2m0 14v2m-9-9h2m14 0h2M5.637 5.636 7.052 7.05m9.9 9.9 1.413 1.414m-12.728 0 1.415-1.414m9.9-9.9 1.413-1.414M12 8l1.236 2.633 2.764.425-2 2.048.472 2.894L12 14.633 9.528 16 10 13.106l-2-2.048 2.764-.425L12 8Z"/></symbol>
<symbol viewBox="0 0 24 24" id="leader"><path stroke="#000" stroke-linejoin="round" stroke-width="2" d="M12 11 8 3H4l4.506 9.462M12 11l4-8h4l-4.506 9.462M12 11c1.344 0 2.585.563 3.494 1.462M12 11c-1.344 0-2.585.563-3.494 1.462m6.988 0C16.418 13.375 17 14.634 17 16a5 5 0 0 1-10 0c0-1.366.582-2.625 1.506-3.538"/></symbol>
<symbol viewBox="0 0 24 24" id="friendship"><path stroke="#000" stroke-linecap="round" stroke-linejoin="round" stroke-width="2" d="M13 20v-2a5 5 0 0 0-10 0v2h10Zm0 0h8v-1c0-2.945-2.239-5-5-5-1.413 0-2.69.626-3.6 1.631M11 7a3 3 0 1 1-6 0 3 3 0 0 1 6 0Zm7 2a2 2 0 1 1-4 0 2 2 0 0 1 4 0Z"/></symbol>
</svg>

